<svg xmlns="http://www.w3.org/2000/svg" viewBox="0 0 87.92 87.92"><defs><style>.cls-1{fill:#fff;}.cls-2{fill:#333;}</style></defs><title>compress_hover</title><g id="Layer_2" data-name="Layer 2"><g id="Layer_1-2" data-name="Layer 1"><g id="Group_906" data-name="Group 906"><g id="Group_905" data-name="Group 905"><path class="cls-1" d="M61.27,25v3.54H57.52V25H30.41v3.33H26.66V25H25v38h1.68V59.59h3.75v3.34H41.23L48,56.19V53h3.2l1-1L49.3,49.16h3.47V46.41h3.38V48l2-2h-.62V42.28h3.76v.62l1.67-1.67V25ZM30.41,57.51H26.66V53.75h3.75Zm0-5.84H26.66V47.91h3.75Zm0-5.84H26.66V42.08h3.75Zm0-5.84H26.66V36.24h3.75Zm0-5.84H26.66V30.4h3.75ZM61.27,40.2H57.52V36.45h3.75Zm0-5.84H57.52V30.61h3.75Z"/></g><g id="path"><g id="path-2" data-name="path"><path id="Path_504" data-name="Path 504" class="cls-1" d="M49,54H60v2H49Zm8.23-3.83L54.46,52.9l-2.74-2.74h2.05V47.41h1.37v2.75Zm-5.49,9.61L54.46,57l2.74,2.75H55.14v2.74H53.77V59.77Z"/></g><path id="Path_504-2" data-name="Path 504" class="cls-1" d="M49,54H60v2H49Zm8.23-3.83L54.46,52.9l-2.74-2.74h2.05V47.41h1.37v2.75Zm-5.49,9.61L54.46,57l2.74,2.75H55.14v2.74H53.77V59.77Z"/></g></g><path class="cls-2" d="M44,87.92a44,44,0,1,1,44-44A44,44,0,0,1,44,87.92ZM44,1.5A42.46,42.46,0,1,0,86.42,44,42.51,42.51,0,0,0,44,1.5Z"/></g></g></svg>