<svg xmlns="http://www.w3.org/2000/svg" viewBox="0 0 87.92 87.92"><defs><style>.cls-1{fill:#ccc;}.cls-2{fill:#fff;}.cls-3{fill:#f24b59;}.cls-4{fill:#333;}</style></defs><title>compress_3</title><g id="Layer_2" data-name="Layer 2"><g id="Layer_1-2" data-name="Layer 1"><g id="Group_906" data-name="Group 906"><g id="Group_905" data-name="Group 905"><polygon class="cls-1" points="63.72 24.21 63.72 41.12 58.71 46.13 56.65 48.19 56.65 46.51 53.13 46.51 53.13 49.38 49.52 49.38 52.48 52.34 51.47 53.36 48.13 53.36 48.13 56.69 41.12 63.71 24.2 63.71 24.2 24.21 63.72 24.21"/><g id="Group_903" data-name="Group 903"><rect id="Rectangle_2581" data-name="Rectangle 2581" class="cls-2" x="25.95" y="29.85" width="3.91" height="3.91"/><rect id="Rectangle_2582" data-name="Rectangle 2582" class="cls-2" x="25.95" y="35.93" width="3.91" height="3.91"/><rect id="Rectangle_2583" data-name="Rectangle 2583" class="cls-2" x="25.95" y="42.01" width="3.91" height="3.91"/><rect id="Rectangle_2584" data-name="Rectangle 2584" class="cls-2" x="25.95" y="48.08" width="3.91" height="3.91"/><rect id="Rectangle_2585" data-name="Rectangle 2585" class="cls-2" x="25.95" y="54.16" width="3.91" height="3.91"/><rect id="Rectangle_2586" data-name="Rectangle 2586" class="cls-2" x="25.95" y="60.24" width="3.91" height="3.91"/><rect id="Rectangle_2587" data-name="Rectangle 2587" class="cls-2" x="25.95" y="23.77" width="3.91" height="3.91"/></g><g id="Group_904" data-name="Group 904"><rect id="Rectangle_2588" data-name="Rectangle 2588" class="cls-2" x="58.07" y="30.07" width="3.91" height="3.91"/><rect id="Rectangle_2589" data-name="Rectangle 2589" class="cls-2" x="58.07" y="36.15" width="3.91" height="3.91"/><path id="Path_503" data-name="Path 503" class="cls-2" d="M62,42.22v.64l-3.26,3.27h-.64V42.22Z"/><rect id="Rectangle_2590" data-name="Rectangle 2590" class="cls-2" x="58.07" y="23.99" width="3.91" height="3.91"/></g></g><g id="path"><g id="path-2" data-name="path"><path id="Path_504" data-name="Path 504" class="cls-3" d="M49.17,54.41H60.6V56.5H49.17Zm8.58-4-2.86,2.85L52,50.42h2.14V47.56H55.6v2.85ZM52,60.42l2.86-2.86,2.85,2.86H55.6v2.85H54.17V60.42Z"/></g><path id="Path_504-2" data-name="Path 504" class="cls-3" d="M49.17,54.41H60.6V56.5H49.17Zm8.58-4-2.86,2.85L52,50.42h2.14V47.56H55.6v2.85ZM52,60.42l2.86-2.86,2.85,2.86H55.6v2.85H54.17V60.42Z"/></g></g><path class="cls-4" d="M44,87.92a44,44,0,1,1,44-44A44,44,0,0,1,44,87.92ZM44,1.5A42.46,42.46,0,1,0,86.42,44,42.51,42.51,0,0,0,44,1.5Z"/></g></g></svg>