<svg xmlns="http://www.w3.org/2000/svg" viewBox="0 0 87.92 87.92"><defs><style>.cls-1{fill:#fff;}.cls-2{fill:#333;}</style></defs><title>edit_hover</title><g id="Layer_2" data-name="Layer 2"><g id="Layer_1-2" data-name="Layer 1"><g id="Group_902" data-name="Group 902"><g id="Group_901" data-name="Group 901"><path class="cls-1" d="M61.26,25v3.55H57.51V25H30.26v3.69H26.74V25H25v38h1.76V59.62h3.52v3.31H41L51.43,52.45,57.84,46h-.33V42.29h3.75v.33L62.93,41V25Zm-31,32.53H26.74V54h3.52Zm0-5.63H26.74V47.66h3.52Zm0-6.33H26.74V42h3.52Zm0-5.63H26.74V36.4h3.52Zm0-5.63H26.74V30.07h3.52Zm31,5.91H57.51V36.45h3.75Zm0-5.84H57.51V30.61h3.75Z"/></g><g id="ic_create_24px" data-name="ic create 24px"><path id="Path_501" data-name="Path 501" class="cls-1" d="M49.18,58.19v2.3h2.3l6.79-6.79-.8-.8L56,51.4Zm10.87-6.27a.6.6,0,0,0,0-.86l-1.44-1.44a.6.6,0,0,0-.86,0l-1.13,1.12,2.3,2.31Z"/></g></g><path class="cls-2" d="M44,87.92a44,44,0,1,1,44-44A44,44,0,0,1,44,87.92ZM44,1.5A42.46,42.46,0,1,0,86.42,44,42.51,42.51,0,0,0,44,1.5Z"/></g></g></svg>