<svg xmlns="http://www.w3.org/2000/svg" viewBox="0 0 87.92 87.92"><defs><style>.cls-1{fill:#ccc;}.cls-2{fill:#fff;}.cls-3{fill:#f24b59;}.cls-4{fill:#333;}</style></defs><title>edit_1</title><g id="Layer_2" data-name="Layer 2"><g id="Layer_1-2" data-name="Layer 1"><g id="Group_902" data-name="Group 902"><g id="Group_901" data-name="Group 901"><path id="Path_499" data-name="Path 499" class="cls-1" d="M63.71,24.38V41l-5.3,5.3L51.73,53l-10.9,10.9H24.21V24.38Z"/><g id="Group_899" data-name="Group 899"><rect id="Rectangle_2571" data-name="Rectangle 2571" class="cls-2" x="26.04" y="29.68" width="3.66" height="4.39"/><rect id="Rectangle_2572" data-name="Rectangle 2572" class="cls-2" x="26.04" y="36.27" width="3.66" height="3.66"/><rect id="Rectangle_2573" data-name="Rectangle 2573" class="cls-2" x="26.04" y="42.13" width="3.66" height="3.66"/><rect id="Rectangle_2574" data-name="Rectangle 2574" class="cls-2" x="26.04" y="47.99" width="3.66" height="4.39"/><rect id="Rectangle_2575" data-name="Rectangle 2575" class="cls-2" x="26.04" y="54.58" width="3.66" height="3.66"/><rect id="Rectangle_2576" data-name="Rectangle 2576" class="cls-2" x="26.04" y="60.44" width="3.66" height="3.66"/><rect id="Rectangle_2577" data-name="Rectangle 2577" class="cls-2" x="26.04" y="23.82" width="3.66" height="4.39"/></g><g id="Group_900" data-name="Group 900"><rect id="Rectangle_2578" data-name="Rectangle 2578" class="cls-2" x="58.07" y="30.24" width="3.91" height="3.91"/><rect id="Rectangle_2579" data-name="Rectangle 2579" class="cls-2" x="58.07" y="36.32" width="3.91" height="3.91"/><path id="Path_500" data-name="Path 500" class="cls-2" d="M62,42.4v.34L58.41,46.3h-.34V42.4Z"/><rect id="Rectangle_2580" data-name="Rectangle 2580" class="cls-2" x="58.07" y="24.16" width="3.91" height="3.91"/></g></g><g id="ic_create_24px" data-name="ic create 24px"><path id="Path_501" data-name="Path 501" class="cls-3" d="M49.39,58.94v2.4h2.39l7.07-7.07L58,53.44l-1.57-1.56ZM60.7,52.42a.63.63,0,0,0,0-.9L59.21,50a.63.63,0,0,0-.9,0l-1.18,1.17,2.4,2.4Z"/></g></g><path class="cls-4" d="M44,87.92a44,44,0,1,1,44-44A44,44,0,0,1,44,87.92ZM44,1.5A42.46,42.46,0,1,0,86.42,44,42.51,42.51,0,0,0,44,1.5Z"/></g></g></svg>