<svg xmlns="http://www.w3.org/2000/svg" viewBox="0 0 87.92 87.92"><defs><style>.cls-1{fill:#fff;}.cls-2{fill:#333;}</style></defs><title>trim_hover</title><g id="Layer_2" data-name="Layer 2"><g id="Layer_1-2" data-name="Layer 1"><g id="Group_915" data-name="Group 915"><g id="Group_914" data-name="Group 914"><path class="cls-1" d="M61.26,25v3.54H57.51V25H30.22v3.68H26.7V25H25V62.93H26.7V59.62h3.52v3.31H41.78L47.69,57h0l1.7-1.7h0l.54-.55a3.21,3.21,0,1,1,3.84-3.83l4.9-4.89H57.51V42.29h3.75v1.17l1.67-1.67V25Zm-31,32.52H26.7V54h3.52Zm0-5.63H26.7V47.66h3.52Zm0-6.33H26.7V42h3.52Zm0-5.63H26.7V36.4h3.52Zm0-5.63H26.7V30.07h3.52Zm31,5.91H57.51V36.45h3.75Zm0-5.84H57.51V30.61h3.75Z"/></g><g id="ic_content_cut_24px" data-name="ic content cut 24px"><path id="Path_512" data-name="Path 512" class="cls-1" d="M52.66,52.55a2,2,0,0,0,.2-.9,2.21,2.21,0,1,0-2.21,2.21h0a2.16,2.16,0,0,0,.91-.2l1.3,1.3-1.3,1.31a2,2,0,0,0-.91-.2,2.21,2.21,0,1,0,2.21,2.21h0a2,2,0,0,0-.2-.91L54,56.07l3.87,3.87H59.5v-.56Zm-2,.2a1.11,1.11,0,1,1,1.11-1.1h0a1.11,1.11,0,0,1-1.11,1.1Zm0,6.63a1.11,1.11,0,0,1,0-2.21,1.11,1.11,0,0,1,1.11,1.11h0a1.11,1.11,0,0,1-1.11,1.1ZM54,55.24a.28.28,0,1,1,.28-.28h0a.28.28,0,0,1-.27.28ZM57.84,50,54.52,53.3l1.11,1.11,3.87-3.87V50Z"/></g></g><path class="cls-2" d="M44,87.92a44,44,0,1,1,44-44A44,44,0,0,1,44,87.92ZM44,1.5A42.46,42.46,0,1,0,86.42,44,42.51,42.51,0,0,0,44,1.5Z"/></g></g></svg>