<svg xmlns="http://www.w3.org/2000/svg" viewBox="0 0 87.92 87.92"><defs><style>.cls-1{fill:#ccc;}.cls-2{fill:#fff;}.cls-3{fill:#f24b59;}.cls-4{fill:#333;}</style></defs><title>trim_3</title><g id="Layer_2" data-name="Layer 2"><g id="Layer_1-2" data-name="Layer 1"><g id="Group_915" data-name="Group 915"><g id="Group_914" data-name="Group 914"><path class="cls-1" d="M63.71,24.39V41.87l-4.42,4.44-5.1,5.09a3.34,3.34,0,1,0-4,4l-.56.58h0l-1.77,1.77s0,0,0,0L41.7,63.88H24.21V24.39Z"/><g id="Group_912" data-name="Group 912"><rect id="Rectangle_2602" data-name="Rectangle 2602" class="cls-2" x="26" y="29.68" width="3.66" height="4.39"/><rect id="Rectangle_2603" data-name="Rectangle 2603" class="cls-2" x="26" y="36.27" width="3.66" height="3.66"/><rect id="Rectangle_2604" data-name="Rectangle 2604" class="cls-2" x="26" y="42.13" width="3.66" height="3.66"/><rect id="Rectangle_2605" data-name="Rectangle 2605" class="cls-2" x="26" y="47.99" width="3.66" height="4.39"/><rect id="Rectangle_2606" data-name="Rectangle 2606" class="cls-2" x="26" y="54.58" width="3.66" height="3.66"/><rect id="Rectangle_2607" data-name="Rectangle 2607" class="cls-2" x="26" y="60.44" width="3.66" height="3.66"/><rect id="Rectangle_2608" data-name="Rectangle 2608" class="cls-2" x="26" y="23.82" width="3.66" height="4.39"/></g><g id="Group_913" data-name="Group 913"><rect id="Rectangle_2609" data-name="Rectangle 2609" class="cls-2" x="58.07" y="30.24" width="3.91" height="3.91"/><rect id="Rectangle_2610" data-name="Rectangle 2610" class="cls-2" x="58.07" y="36.32" width="3.91" height="3.91"/><path id="Path_511" data-name="Path 511" class="cls-2" d="M62,42.4v1.21L59.28,46.3H58.07V42.4Z"/><rect id="Rectangle_2611" data-name="Rectangle 2611" class="cls-2" x="58.07" y="24.16" width="3.91" height="3.91"/></g></g><g id="ic_content_cut_24px" data-name="ic content cut 24px"><path id="Path_512" data-name="Path 512" class="cls-3" d="M53,53.08a2.22,2.22,0,0,0,.21-.94,2.3,2.3,0,1,0-2.3,2.3h0a2.22,2.22,0,0,0,.94-.21l1.36,1.36L51.87,57a2.22,2.22,0,0,0-.94-.21,2.3,2.3,0,1,0,2.3,2.3h0A2.15,2.15,0,0,0,53,58.1l1.36-1.36,4,4h1.72v-.58Zm-2.09.21a1.15,1.15,0,1,1,1.15-1.15h0a1.16,1.16,0,0,1-1.15,1.15Zm0,6.9A1.15,1.15,0,1,1,52.08,59h0a1.16,1.16,0,0,1-1.15,1.15Zm3.45-4.31a.29.29,0,1,1,.29-.29h0a.3.3,0,0,1-.29.29Zm4-5.47L55,53.86,56.1,55l4-4v-.58Z"/></g></g><path class="cls-4" d="M44,87.92a44,44,0,1,1,44-44A44,44,0,0,1,44,87.92ZM44,1.5A42.46,42.46,0,1,0,86.42,44,42.51,42.51,0,0,0,44,1.5Z"/></g></g></svg>