<svg xmlns="http://www.w3.org/2000/svg" viewBox="0 0 87.92 87.92"><defs><style>.cls-1{fill:#ccc;}.cls-2{fill:#fff;}.cls-3{fill:#f24b59;}.cls-4{fill:#333;}</style></defs><title>vid_to_gif_1</title><g id="Layer_2" data-name="Layer 2"><g id="Layer_1-2" data-name="Layer 1"><g id="Group_911" data-name="Group 911"><g id="Group_909" data-name="Group 909"><polygon class="cls-1" points="63.27 24.21 63.27 41.41 58.56 46.13 55.68 49 43.2 49 43.2 61.48 40.98 63.71 23.77 63.71 23.77 24.21 63.27 24.21"/><g id="Group_907" data-name="Group 907"><rect id="Rectangle_2591" data-name="Rectangle 2591" class="cls-2" x="25.51" y="29.85" width="3.91" height="3.91"/><rect id="Rectangle_2592" data-name="Rectangle 2592" class="cls-2" x="25.51" y="35.93" width="3.91" height="3.91"/><rect id="Rectangle_2593" data-name="Rectangle 2593" class="cls-2" x="25.51" y="42.01" width="3.91" height="3.91"/><rect id="Rectangle_2594" data-name="Rectangle 2594" class="cls-2" x="25.51" y="48.08" width="3.91" height="3.91"/><rect id="Rectangle_2595" data-name="Rectangle 2595" class="cls-2" x="25.51" y="54.16" width="3.91" height="3.91"/><rect id="Rectangle_2596" data-name="Rectangle 2596" class="cls-2" x="25.51" y="60.24" width="3.91" height="3.91"/><rect id="Rectangle_2597" data-name="Rectangle 2597" class="cls-2" x="25.51" y="23.77" width="3.91" height="3.91"/></g><g id="Group_908" data-name="Group 908"><rect id="Rectangle_2598" data-name="Rectangle 2598" class="cls-2" x="57.63" y="30.07" width="3.91" height="3.91"/><rect id="Rectangle_2599" data-name="Rectangle 2599" class="cls-2" x="57.63" y="36.15" width="3.91" height="3.91"/><path id="Path_506" data-name="Path 506" class="cls-2" d="M61.54,42.22v.93l-3,3h-.93V42.22Z"/><rect id="Rectangle_2600" data-name="Rectangle 2600" class="cls-2" x="57.63" y="23.99" width="3.91" height="3.91"/></g></g><g id="Group_137" data-name="Group 137"><g id="Rectangle_194" data-name="Rectangle 194"><g id="Rectangle_194-2" data-name="Rectangle 194"><rect id="Rectangle_2601" data-name="Rectangle 2601" class="cls-3" x="44.24" y="50.05" width="19.91" height="10.74"/></g></g><g id="GIF"><g id="Group_910" data-name="Group 910"><path id="Path_507" data-name="Path 507" class="cls-2" d="M52.28,57.71a2.07,2.07,0,0,1-.94.62,3.86,3.86,0,0,1-1.35.22,2.62,2.62,0,0,1-1.36-.34,2.24,2.24,0,0,1-.9-1,3.36,3.36,0,0,1-.33-1.52V55.3a3.76,3.76,0,0,1,.3-1.55,2.28,2.28,0,0,1,.87-1,2.85,2.85,0,0,1,3,.16,2.16,2.16,0,0,1,.72,1.48h-1.2a1.22,1.22,0,0,0-.37-.76,1.14,1.14,0,0,0-.78-.23,1.09,1.09,0,0,0-.95.47,2.46,2.46,0,0,0-.34,1.41v.38A2.36,2.36,0,0,0,49,57.08a1.2,1.2,0,0,0,1.05.48,1.36,1.36,0,0,0,1-.29v-1H49.93v-.91h2.35Z"/><path id="Path_508" data-name="Path 508" class="cls-2" d="M55.44,58.47H54.2v-6h1.24Z"/><path id="Path_509" data-name="Path 509" class="cls-2" d="M61,56H58.66v2.45H57.42v-6h3.9v1H58.66V55H61Z"/></g></g></g></g><path class="cls-4" d="M44,87.92a44,44,0,1,1,44-44A44,44,0,0,1,44,87.92ZM44,1.5A42.46,42.46,0,1,0,86.42,44,42.51,42.51,0,0,0,44,1.5Z"/></g></g></svg>