<svg xmlns="http://www.w3.org/2000/svg" viewBox="0 0 87.92 87.92"><defs><style>.cls-1{fill:#fff;}.cls-2{fill:#333;}</style></defs><title>vid_to_gif_hover</title><g id="Layer_2" data-name="Layer 2"><g id="Layer_1-2" data-name="Layer 1"><g id="Group_911" data-name="Group 911"><g id="Group_909" data-name="Group 909"><path class="cls-1" d="M60.84,25v3.54H57.09V25H30v3.33H26.23V25H24.56v38h1.67V59.59H30v3.34H41.09l2.14-2.14v-12h12L58,46h-.89V42.28h3.76v.89l1.66-1.66V25ZM30,57.51H26.23V53.75H30Zm0-5.84H26.23V47.91H30Zm0-5.84H26.23V42.08H30ZM30,40H26.23V36.24H30Zm0-5.84H26.23V30.4H30ZM60.84,40.2H57.09V36.45h3.75Zm0-5.84H57.09V30.61h3.75Z"/></g><g id="Group_137" data-name="Group 137"><g id="Rectangle_194" data-name="Rectangle 194"><g id="Rectangle_194-2" data-name="Rectangle 194"><path class="cls-1" d="M44.23,49.8V60.11H63.35V49.8Zm4.58,6.76a1.2,1.2,0,0,0,1,.46,1.35,1.35,0,0,0,1-.28v-1H49.69v-.88H52v2.3a2,2,0,0,1-.9.59,3.62,3.62,0,0,1-1.3.21,2.6,2.6,0,0,1-1.31-.32,2.16,2.16,0,0,1-.87-.95,3.33,3.33,0,0,1-.31-1.46v-.39a3.63,3.63,0,0,1,.29-1.49,2.12,2.12,0,0,1,.84-1,2.74,2.74,0,0,1,2.88.15A2.1,2.1,0,0,1,52,54H50.8a1.1,1.1,0,0,0-.35-.72,1.06,1.06,0,0,0-.74-.23,1,1,0,0,0-.92.45,2.37,2.37,0,0,0-.32,1.35v.37A2.21,2.21,0,0,0,48.81,56.56ZM55,57.89H53.8V52.14H55Zm5.65-4.79H58.07v1.49h2.28v.95H58.07v2.35H56.89V52.14h3.74Z"/></g></g></g></g><path class="cls-2" d="M44,87.92a44,44,0,1,1,44-44A44,44,0,0,1,44,87.92ZM44,1.5A42.46,42.46,0,1,0,86.42,44,42.51,42.51,0,0,0,44,1.5Z"/></g></g></svg>