<svg xmlns="http://www.w3.org/2000/svg" xmlns:xlink="http://www.w3.org/1999/xlink" width="64.928" height="63" viewBox="0 0 64.928 63">
  <defs>
    <filter id="Ellipse_1-2" x="0" y="0" width="64.928" height="63" filterUnits="userSpaceOnUse">
      <feOffset dy="3" input="SourceAlpha"/>
      <feGaussianBlur stdDeviation="3" result="blur"/>
      <feFlood flood-opacity="0.161"/>
      <feComposite operator="in" in2="blur"/>
      <feComposite in="SourceGraphic"/>
    </filter>
  </defs>
  <g id="audio_rec" transform="translate(-25.826 77)">
    <g transform="matrix(1, 0, 0, 1, 25.83, -77)" filter="url(#Ellipse_1-2)">
      <path id="Ellipse_1-2-2" data-name="Ellipse 1-2" d="M23.464,0C36.423,0,46.928,10.074,46.928,22.5S36.423,45,23.464,45,0,34.926,0,22.5,10.505,0,23.464,0Z" transform="translate(9 6)" fill="#333"/>
    </g>
    <path id="ic_mic_24px" data-name="ic mic 24px" d="M241.458,804.825a2.989,2.989,0,0,0,2.99-2.984v-.016l.01-6a3,3,0,0,0-6,0v6A3,3,0,0,0,241.458,804.825Zm5.3-3a5.19,5.19,0,0,1-5.276,5.1h-.024a5.19,5.19,0,0,1-5.3-5.077v-.023h-1.7a6.985,6.985,0,0,0,6,6.72v3.28h2v-3.28a6.969,6.969,0,0,0,6-6.72Z" transform="translate(-182.843 -850.001)" fill="#fff"/>
  </g>
</svg>
