<svg xmlns="http://www.w3.org/2000/svg" xmlns:xlink="http://www.w3.org/1999/xlink" width="64.928" height="64.928" viewBox="0 0 64.928 64.928">
  <defs>
    <filter id="Ellipse_1-2" x="0" y="0" width="64.928" height="64.928" filterUnits="userSpaceOnUse">
      <feOffset dy="3" input="SourceAlpha"/>
      <feGaussianBlur stdDeviation="3" result="blur"/>
      <feFlood flood-opacity="0.161"/>
      <feComposite operator="in" in2="blur"/>
      <feComposite in="SourceGraphic"/>
    </filter>
  </defs>
  <g id="gallery" transform="translate(-182.21 -597.529)">
    <g id="Group_72" data-name="Group 72" transform="translate(191.211 603.529)">
      <g id="Group_71" data-name="Group 71" transform="translate(0 0)">
        <g transform="matrix(1, 0, 0, 1, -9, -6)" filter="url(#Ellipse_1-2)">
          <path id="Ellipse_1-2-2" data-name="Ellipse 1-2" d="M23.464,0A23.464,23.464,0,1,1,0,23.464,23.464,23.464,0,0,1,23.464,0Z" transform="translate(9 6)" fill="#333"/>
        </g>
      </g>
    </g>
    <path id="ic_collections_24px" d="M22,16V4a2.006,2.006,0,0,0-2-2H8A2.006,2.006,0,0,0,6,4V16a2.006,2.006,0,0,0,2,2H20A2.006,2.006,0,0,0,22,16ZM11,12l2.03,2.71L16,11l4,5H8ZM2,6V20a2.006,2.006,0,0,0,2,2H18V20H4V6Z" transform="translate(203 615)" fill="#fff"/>
  </g>
</svg>
