<svg xmlns="http://www.w3.org/2000/svg" xmlns:xlink="http://www.w3.org/1999/xlink" width="64.928" height="63" viewBox="0 0 64.928 63">
  <defs>
    <filter id="Ellipse_1-2" x="0" y="0" width="64.928" height="63" filterUnits="userSpaceOnUse">
      <feOffset dy="3" input="SourceAlpha"/>
      <feGaussianBlur stdDeviation="3" result="blur"/>
      <feFlood flood-opacity="0.161"/>
      <feComposite operator="in" in2="blur"/>
      <feComposite in="SourceGraphic"/>
    </filter>
  </defs>
  <g id="game_record" transform="translate(9 6)">
    <g transform="matrix(1, 0, 0, 1, -9, -6)" filter="url(#Ellipse_1-2)">
      <ellipse id="Ellipse_1-2-2" data-name="Ellipse 1-2" cx="23.464" cy="22.5" rx="23.464" ry="22.5" transform="translate(9 6)" fill="#333"/>
    </g>
    <g id="Group_178" data-name="Group 178" transform="translate(11.122 14.671)">
      <path id="Path_91" data-name="Path 91" d="M22,11.882c-3.19-5.242-8-1.6-8-1.6a2.491,2.491,0,0,1-1.277.43H11.434a2.474,2.474,0,0,1-1.277-.429s-4.807-3.648-8,1.594A16.174,16.174,0,0,0,.256,22.83c.225,1.4.968,2.33,2.368,2.213s4.429-3.763,4.429-3.763a1.728,1.728,0,0,1,1.165-.546h7.718a1.725,1.725,0,0,1,1.164.546s3.032,3.646,4.431,3.763,2.143-.816,2.367-2.213A16.169,16.169,0,0,0,22,11.882ZM9.177,16.148H7.522v1.6A1.542,1.542,0,0,1,6.629,18a1.078,1.078,0,0,1-.786-.292V16.149H4.28a1.257,1.257,0,0,1-.247-.727,1.667,1.667,0,0,1,.216-.952H5.9V12.815a1.8,1.8,0,0,1,.83-.168,2.189,2.189,0,0,1,.849.2L7.576,14.47H9.139a1.556,1.556,0,0,1,.3.774A1.955,1.955,0,0,1,9.177,16.148Zm7.591,1.818a1.31,1.31,0,1,1,1.31-1.31A1.308,1.308,0,0,1,16.768,17.966Zm0-3.6a1.31,1.31,0,1,1,1.31-1.309A1.308,1.308,0,0,1,16.768,14.362ZM20.03,16.3a1.31,1.31,0,1,1,1.31-1.31A1.308,1.308,0,0,1,20.03,16.3Z" transform="translate(0 -9.052)" fill="#fff"/>
    </g>
  </g>
</svg>
