<svg xmlns="http://www.w3.org/2000/svg" viewBox="0 0 212.88 40.34"><defs><style>.cls-1{fill:#f2f2f2;}.cls-2{opacity:0.1;}.cls-3{fill:#fff;}.cls-4{fill:#ed4950;}.cls-5{isolation:isolate;}</style></defs><title>LOGO</title><g id="Layer_2" data-name="Layer 2"><g id="Layer_1-2" data-name="Layer 1"><g id="LOGO"><g id="Group_248" data-name="Group 248"><g id="logo-2"><g id="Group_104" data-name="Group 104"><g id="Ellipse_1-2" data-name="Ellipse 1-2"><path class="cls-1" d="M20.26,0A20.15,20.15,0,1,1,.11,20.19,20.15,20.15,0,0,1,20.26,0Z"/></g></g><g id="Group_106" data-name="Group 106" class="cls-2"><g id="Group_105" data-name="Group 105"><g id="Path_34" data-name="Path 34"><path class="cls-3" d="M36.78,8.77v0L3.54,31.56v0A20.15,20.15,0,0,1,36.78,8.77Z"/></g></g></g><g id="Group_107" data-name="Group 107"><g id="Ellipse_5" data-name="Ellipse 5"><circle class="cls-3" cx="20.26" cy="20.19" r="8.84"/></g><g id="Path_35" data-name="Path 35"><path class="cls-1" d="M20.26,8.92A11.27,11.27,0,1,1,9,20.19,11.27,11.27,0,0,1,20.26,8.92Z"/><path d="M20.26,33A12.77,12.77,0,1,1,33,20.19,12.79,12.79,0,0,1,20.26,33Zm0-22.54A9.77,9.77,0,1,0,30,20.19,9.78,9.78,0,0,0,20.26,10.42Z"/></g><g id="Ellipse_6" data-name="Ellipse 6"><circle class="cls-4" cx="20.26" cy="20.19" r="4.53"/></g></g></g><g id="YASOKA_RECORDER" data-name="YASOKA RECORDER" class="cls-5"><g class="cls-5"><path class="cls-3" d="M49.94,18.75l2.36-5.13h2.57l-3.74,7.25V25H48.75V20.87L45,13.62h2.58Z"/><path class="cls-3" d="M62.76,22.65H58.65L57.86,25H55.37l4.24-11.38h2.17L66,25h-2.5Zm-3.48-1.89h2.84L60.69,16.5Z"/><path class="cls-3" d="M74.6,22a1.22,1.22,0,0,0-.47-1,6.64,6.64,0,0,0-1.69-.75,12.6,12.6,0,0,1-1.93-.77,3.16,3.16,0,0,1-1.94-2.82A2.79,2.79,0,0,1,69.09,15a3.43,3.43,0,0,1,1.5-1.13,5.57,5.57,0,0,1,2.18-.4,5,5,0,0,1,2.17.44,3.42,3.42,0,0,1,1.48,1.24A3.3,3.3,0,0,1,77,17H74.61a1.52,1.52,0,0,0-.5-1.21,2,2,0,0,0-1.38-.44,2.13,2.13,0,0,0-1.34.37,1.15,1.15,0,0,0-.47.95,1.08,1.08,0,0,0,.56.93,6.32,6.32,0,0,0,1.64.71A7.19,7.19,0,0,1,76,19.78,3,3,0,0,1,77,22a2.72,2.72,0,0,1-1.12,2.31,4.89,4.89,0,0,1-3,.84,5.83,5.83,0,0,1-2.39-.48,3.87,3.87,0,0,1-1.64-1.31,3.38,3.38,0,0,1-.57-1.94h2.35c0,1.25.75,1.88,2.25,1.88A2.17,2.17,0,0,0,74.13,23,1.1,1.1,0,0,0,74.6,22Z"/><path class="cls-3" d="M89.48,19.57a6.77,6.77,0,0,1-.6,2.94,4.45,4.45,0,0,1-1.69,2,4.8,4.8,0,0,1-2.54.68,4.67,4.67,0,0,1-2.52-.68,4.46,4.46,0,0,1-1.72-1.94,6.68,6.68,0,0,1-.62-2.9v-.56a6.75,6.75,0,0,1,.61-3,4.49,4.49,0,0,1,1.71-2,5,5,0,0,1,5,0,4.49,4.49,0,0,1,1.71,2,6.73,6.73,0,0,1,.61,2.95Zm-2.38-.52a4.77,4.77,0,0,0-.64-2.72,2.07,2.07,0,0,0-1.83-.93,2.11,2.11,0,0,0-1.82.92A4.75,4.75,0,0,0,82.17,19v.56a4.81,4.81,0,0,0,.64,2.7,2.24,2.24,0,0,0,3.65,0,4.81,4.81,0,0,0,.64-2.7Z"/><path class="cls-3" d="M96.34,20.44l-1.21,1.31V25H92.78V13.62h2.35v5.16l1-1.41,2.9-3.75h2.88l-4,5.06L102.06,25H99.27Z"/><path class="cls-3" d="M111,22.65h-4.11L106.07,25h-2.49l4.23-11.38H110L114.24,25h-2.49Zm-3.48-1.89h2.85L108.9,16.5Z"/><path class="cls-3" d="M126.7,20.83h-1.87V25h-2.34V13.62h4.23a4.75,4.75,0,0,1,3.1.9,3.11,3.11,0,0,1,1.1,2.54,3.46,3.46,0,0,1-.51,1.94,3.4,3.4,0,0,1-1.52,1.24l2.46,4.65V25h-2.52Zm-1.87-1.89h1.89a1.93,1.93,0,0,0,1.37-.45,1.63,1.63,0,0,0,.48-1.24,1.74,1.74,0,0,0-.45-1.27,1.91,1.91,0,0,0-1.4-.46h-1.89Z"/><path class="cls-3" d="M141.14,20.07h-4.5v3.05h5.28V25H134.3V13.62h7.61v1.9h-5.27v2.71h4.5Z"/><path class="cls-3" d="M153.83,21.21a4,4,0,0,1-1.36,2.89,4.76,4.76,0,0,1-3.22,1,4.28,4.28,0,0,1-3.44-1.47,6,6,0,0,1-1.25-4v-.7a6.93,6.93,0,0,1,.57-2.89,4.4,4.4,0,0,1,1.66-1.92,5.18,5.18,0,0,1,5.66.39,4.26,4.26,0,0,1,1.39,3H151.5a2.43,2.43,0,0,0-.61-1.6,2.28,2.28,0,0,0-1.61-.49,2,2,0,0,0-1.75.84,4.68,4.68,0,0,0-.6,2.6v.86a5.08,5.08,0,0,0,.56,2.7,2,2,0,0,0,1.76.85,2.28,2.28,0,0,0,1.62-.5,2.26,2.26,0,0,0,.62-1.53Z"/><path class="cls-3" d="M166.31,19.57a6.92,6.92,0,0,1-.59,2.94,4.47,4.47,0,0,1-1.7,2,4.78,4.78,0,0,1-2.54.68,4.67,4.67,0,0,1-2.52-.68,4.52,4.52,0,0,1-1.72-1.94,6.83,6.83,0,0,1-.62-2.9v-.56a6.89,6.89,0,0,1,.61-3,4.49,4.49,0,0,1,1.71-2,5,5,0,0,1,5.06,0,4.62,4.62,0,0,1,1.71,2,6.88,6.88,0,0,1,.6,2.95Zm-2.37-.52a4.86,4.86,0,0,0-.64-2.72,2.26,2.26,0,0,0-3.65,0A4.66,4.66,0,0,0,159,19v.56a4.81,4.81,0,0,0,.64,2.7,2.25,2.25,0,0,0,3.66,0,4.89,4.89,0,0,0,.64-2.7Z"/><path class="cls-3" d="M173.83,20.83H172V25h-2.35V13.62h4.23a4.78,4.78,0,0,1,3.11.9A3.1,3.1,0,0,1,178,17.06a3.17,3.17,0,0,1-2,3.18l2.46,4.65V25H176ZM172,18.94h1.89a2,2,0,0,0,1.37-.45,1.63,1.63,0,0,0,.48-1.24,1.71,1.71,0,0,0-.46-1.27,1.88,1.88,0,0,0-1.4-.46H172Z"/><path class="cls-3" d="M181.43,25V13.62h3.5a5.31,5.31,0,0,1,2.68.68,4.75,4.75,0,0,1,1.85,1.92,5.94,5.94,0,0,1,.66,2.83v.53a6,6,0,0,1-.65,2.82,4.7,4.7,0,0,1-1.84,1.91A5.45,5.45,0,0,1,185,25Zm2.34-9.48v7.6h1.13a2.53,2.53,0,0,0,2.1-.9,4,4,0,0,0,.75-2.57V19a4.09,4.09,0,0,0-.72-2.62,2.53,2.53,0,0,0-2.1-.9Z"/><path class="cls-3" d="M200.27,20.07h-4.5v3.05h5.28V25h-7.63V13.62H201v1.9h-5.26v2.71h4.5Z"/><path class="cls-3" d="M208.23,20.83h-1.86V25H204V13.62h4.23a4.78,4.78,0,0,1,3.11.9,3.1,3.1,0,0,1,1.09,2.54A3.46,3.46,0,0,1,212,19a3.49,3.49,0,0,1-1.53,1.24l2.46,4.65V25h-2.51Zm-1.86-1.89h1.89a2,2,0,0,0,1.37-.45,1.63,1.63,0,0,0,.48-1.24,1.71,1.71,0,0,0-.46-1.27,1.88,1.88,0,0,0-1.4-.46h-1.88Z"/></g></g></g></g></g></g></svg>