<svg xmlns="http://www.w3.org/2000/svg" xmlns:xlink="http://www.w3.org/1999/xlink" width="64.928" height="64.928" viewBox="0 0 64.928 64.928">
  <defs>
    <filter id="Ellipse_1-2" x="0" y="0" width="64.928" height="64.928" filterUnits="userSpaceOnUse">
      <feOffset dy="3" input="SourceAlpha"/>
      <feGaussianBlur stdDeviation="3" result="blur"/>
      <feFlood flood-opacity="0.161"/>
      <feComposite operator="in" in2="blur"/>
      <feComposite in="SourceGraphic"/>
    </filter>
  </defs>
  <g id="screenshot" transform="translate(9 6)">
    <g id="Group_81" data-name="Group 81" transform="translate(0 0)">
      <g transform="matrix(1, 0, 0, 1, -9, -6)" filter="url(#Ellipse_1-2)">
        <circle id="Ellipse_1-2-2" data-name="Ellipse 1-2" cx="23.464" cy="23.464" r="23.464" transform="translate(9 6)" fill="#333"/>
      </g>
    </g>
    <g id="ic_camera_alt_24px" transform="translate(11.138 12.471)">
      <circle id="Ellipse_14" data-name="Ellipse 14" cx="3.2" cy="3.2" r="3.2" transform="translate(8.8 8.8)" fill="#fff"/>
      <path id="Path_89" data-name="Path 89" d="M9,2,7.17,4H4A2.006,2.006,0,0,0,2,6V18a2.006,2.006,0,0,0,2,2H20a2.006,2.006,0,0,0,2-2V6a2.006,2.006,0,0,0-2-2H16.83L15,2Zm3,15a5,5,0,1,1,5-5A5,5,0,0,1,12,17Z" fill="#fff"/>
    </g>
  </g>
</svg>
