<svg xmlns="http://www.w3.org/2000/svg" viewBox="0 0 27 27"><defs><style>.cls-1{fill:#f24b59;}.cls-2{fill:#fff;}</style></defs><title>downloads</title><g id="Layer_2" data-name="Layer 2"><g id="Layer_1-2" data-name="Layer 1"><circle class="cls-1" cx="13.5" cy="13.5" r="13.5"/><path class="cls-2" d="M19.47,14.25a.27.27,0,0,0-.26-.18H16.08V6.92a.29.29,0,0,0-.29-.28H11.22a.29.29,0,0,0-.29.28v7.15H7.79a.27.27,0,0,0-.26.18.28.28,0,0,0,.06.31l5.7,5.72a.3.3,0,0,0,.2.08.28.28,0,0,0,.2-.08l5.72-5.72A.28.28,0,0,0,19.47,14.25Z"/></g></g></svg>