<svg xmlns="http://www.w3.org/2000/svg" viewBox="0 0 87.92 87.92"><defs><style>.cls-1{fill:#fff;}.cls-2{fill:#333;}</style></defs><title>edit_img_white</title><g id="Layer_2" data-name="Layer 2"><g id="Layer_1-2" data-name="Layer 1"><g id="Group_191" data-name="Group 191"><g id="Path_93" data-name="Path 93"><path class="cls-1" d="M49.31,36.38,41.4,46.56l-5.64-6.79L27.85,49.93H59.49Z"/></g><g id="Group_190" data-name="Group 190"><g id="Path_94" data-name="Path 94"><path class="cls-1" d="M61.4,26.05H26.52A4.92,4.92,0,0,0,21.6,31v26a4.93,4.93,0,0,0,4.92,4.93H45.89v-2H26.52a3,3,0,0,1-2.94-3V31A2.94,2.94,0,0,1,26.52,28H61.4A2.94,2.94,0,0,1,64.34,31V44.06h2V31A4.93,4.93,0,0,0,61.4,26.05Z"/></g></g><g id="ic_create_24px" data-name="ic create 24px"><path class="cls-1" d="M52.38,59v2.91h2.91l8.56-8.57-1-1L61,50.4Zm13.71-7.9a.77.77,0,0,0,0-1.09l-1.81-1.81a.77.77,0,0,0-1.09,0l-1.42,1.41,2.91,2.91Z"/></g></g><path class="cls-2" d="M44,87.92a44,44,0,1,1,44-44A44,44,0,0,1,44,87.92ZM44,1.5A42.46,42.46,0,1,0,86.42,44,42.51,42.51,0,0,0,44,1.5Z"/></g></g></svg>