<svg xmlns="http://www.w3.org/2000/svg" viewBox="0 0 46.93 46.93"><defs><style>.cls-1{fill:#ed4950;}.cls-2{fill:#fff;}</style></defs><title>explainer (2)</title><g id="Layer_2" data-name="Layer 2"><g id="Layer_1-2" data-name="Layer 1"><g id="explainer"><g id="Group_79" data-name="Group 79"><circle id="Ellipse_1-2-5" data-name="Ellipse 1-2-5" class="cls-1" cx="23.46" cy="23.46" r="23.46"/></g><path id="ic_brush_24px" data-name="ic brush 24px" class="cls-2" d="M18.71,25.58a3.17,3.17,0,0,0-3.17,3.17,2.14,2.14,0,0,1-2.11,2.11A5.42,5.42,0,0,0,17.65,33a4.22,4.22,0,0,0,4.23-4.22h0A3.17,3.17,0,0,0,18.71,25.58Zm14.48-9.9-1.41-1.42a1.06,1.06,0,0,0-1.49,0l-9.47,9.47,2.91,2.9,9.46-9.46a1.06,1.06,0,0,0,0-1.49Z"/><path id="ic_brush_24px-2" data-name="ic brush 24px-2" class="cls-2" d="M18.71,25.58a3.17,3.17,0,0,0-3.17,3.17,2.14,2.14,0,0,1-2.11,2.11A5.42,5.42,0,0,0,17.65,33a4.22,4.22,0,0,0,4.23-4.22h0A3.17,3.17,0,0,0,18.71,25.58Zm14.48-9.9-1.41-1.42a1.06,1.06,0,0,0-1.49,0l-9.47,9.47,2.91,2.9,9.46-9.46a1.06,1.06,0,0,0,0-1.49Z"/></g></g></g></svg>