<svg xmlns="http://www.w3.org/2000/svg" viewBox="0 0 416.52 492.93"><defs><style>.cls-1,.cls-2,.cls-3{fill:none;stroke:#000;stroke-miterlimit:10;stroke-width:3px;}.cls-2{stroke-dasharray:11.74 11.74;}.cls-3{stroke-dasharray:12;}.cls-4{fill:#f2f2f2;}.cls-5{fill:#fff;}.cls-6{fill:#ed4950;}.cls-7{opacity:0.25;}</style></defs><title>featurs_web</title><g id="Layer_2" data-name="Layer 2"><g id="Layer_1-2" data-name="Layer 1"><path class="cls-1" d="M273.23,142.75s.44-2.1,1.5-5.8"/><path class="cls-2" d="M278.35,125.78C289.69,94.34,322.7,28.09,404.68,4.42"/><path class="cls-1" d="M410.35,2.87q2.88-.74,5.83-1.41"/><path class="cls-3" d="M314.18,200.46s43-48,102-39"/><path class="cls-1" d="M273.23,350.17s.44,2.11,1.5,5.81"/><path class="cls-2" d="M278.35,367.14c11.34,31.44,44.35,97.7,126.33,121.36"/><path class="cls-1" d="M410.35,490.05c1.92.49,3.86,1,5.83,1.41"/><path class="cls-3" d="M314.18,292.46s43,48,102,39"/><path class="cls-1" d="M148.18,142.75s-.44-2.1-1.5-5.8"/><path class="cls-2" d="M143.06,125.78C131.72,94.34,98.71,28.09,16.73,4.42"/><path class="cls-1" d="M11.06,2.87Q8.18,2.13,5.23,1.46"/><path class="cls-3" d="M103.23,200.46s-43-48-102-39"/><path class="cls-1" d="M145.18,350.17s-.44,2.11-1.5,5.81"/><path class="cls-2" d="M140.06,367.14c-11.34,31.44-44.35,97.7-126.33,121.36"/><path class="cls-1" d="M8.06,490.05c-1.92.49-3.86,1-5.83,1.41"/><path class="cls-3" d="M102.23,292.46s-43,48-102,39"/><g id="Group_108" data-name="Group 108"><g id="Group_104" data-name="Group 104"><g id="Ellipse_1-2" data-name="Ellipse 1-2"><path class="cls-4" d="M209.82,107.86A138.73,138.73,0,1,1,71.1,246.58,138.72,138.72,0,0,1,209.82,107.86Z"/></g></g></g><g id="Path_35" data-name="Path 35"><path d="M209.82,334.49a87.91,87.91,0,1,1,87.91-87.9A88,88,0,0,1,209.82,334.49Zm0-155.16a67.26,67.26,0,1,0,67.26,67.26A67.33,67.33,0,0,0,209.82,179.33Z"/></g><g id="Ellipse_5" data-name="Ellipse 5"><circle class="cls-5" cx="209.81" cy="246.58" r="60.82"/></g><g id="Group_107" data-name="Group 107"><g id="Ellipse_6" data-name="Ellipse 6"><circle class="cls-6" cx="209.82" cy="246.58" r="31.2"/></g></g><g id="Group_106" data-name="Group 106" class="cls-7"><g id="Group_105" data-name="Group 105"><g id="Path_34" data-name="Path 34"><path class="cls-5" d="M323.54,168l.09.13L94.74,324.87l-.09-.13A138.72,138.72,0,1,1,323.54,168Z"/></g></g></g></g></g></svg>