<svg xmlns="http://www.w3.org/2000/svg" viewBox="0 0 87.92 87.92"><defs><style>.cls-1{fill:#fff;}.cls-2{isolation:isolate;}.cls-3{fill:#333;}</style></defs><title>GIF_white</title><g id="Layer_2" data-name="Layer 2"><g id="Layer_1-2" data-name="Layer 1"><g id="Group_138" data-name="Group 138"><g id="Group_136" data-name="Group 136"><g id="Group_126" data-name="Group 126"><g id="Path_38" data-name="Path 38"><path class="cls-1" d="M56.84,26.47H23.71A4.68,4.68,0,0,0,19,31.14V55.82a4.69,4.69,0,0,0,4.68,4.68h18.4V58.62H23.71a2.8,2.8,0,0,1-2.8-2.8V31.14a2.79,2.79,0,0,1,2.8-2.79H56.84a2.79,2.79,0,0,1,2.8,2.79V43.58h1.88V31.14A4.68,4.68,0,0,0,56.84,26.47Z"/></g></g><g id="Group_135" data-name="Group 135"><g id="Group_131" data-name="Group 131"><g id="Group_127" data-name="Group 127"><g id="Rectangle_188" data-name="Rectangle 188"><rect class="cls-1" x="23.63" y="30.79" width="3.2" height="3.2"/></g></g><g id="Group_128" data-name="Group 128"><g id="Rectangle_189" data-name="Rectangle 189"><rect class="cls-1" x="23.63" y="38.19" width="3.2" height="3.2"/></g></g><g id="Group_129" data-name="Group 129"><g id="Rectangle_190" data-name="Rectangle 190"><rect class="cls-1" x="23.63" y="45.58" width="3.2" height="3.2"/></g></g><g id="Group_130" data-name="Group 130"><g id="Rectangle_191" data-name="Rectangle 191"><rect class="cls-1" x="23.63" y="52.98" width="3.2" height="3.2"/></g></g></g><g id="Group_134" data-name="Group 134"><g id="Group_132" data-name="Group 132"><g id="Rectangle_192" data-name="Rectangle 192"><rect class="cls-1" x="53.72" y="30.79" width="3.2" height="3.2"/></g></g><g id="Group_133" data-name="Group 133"><g id="Rectangle_193" data-name="Rectangle 193"><rect class="cls-1" x="53.72" y="38.19" width="3.2" height="3.2"/></g></g></g></g></g><g id="Group_137" data-name="Group 137"><g id="Rectangle_194" data-name="Rectangle 194"><rect class="cls-1" x="45.02" y="48.58" width="23.87" height="12.87"/></g><g id="GIF"><g class="cls-2"><path class="cls-3" d="M54.66,57.77a2.51,2.51,0,0,1-1.13.74,4.63,4.63,0,0,1-1.62.26,3.2,3.2,0,0,1-1.63-.4,2.77,2.77,0,0,1-1.09-1.18,4.31,4.31,0,0,1-.39-1.82v-.49A4.41,4.41,0,0,1,49.16,53a2.71,2.71,0,0,1,1.05-1.21,3.1,3.1,0,0,1,1.6-.41,3,3,0,0,1,2,.61,2.58,2.58,0,0,1,.85,1.77H53.22a1.42,1.42,0,0,0-.44-.9,1.38,1.38,0,0,0-.93-.29,1.29,1.29,0,0,0-1.14.57,2.91,2.91,0,0,0-.4,1.69v.45A2.8,2.8,0,0,0,50.74,57a1.46,1.46,0,0,0,1.25.58,1.63,1.63,0,0,0,1.19-.36V56H51.83V54.9h2.83Z"/><path class="cls-3" d="M58.44,58.68H57V51.5h1.48Z"/><path class="cls-3" d="M65.14,55.74H62.3v2.94H60.82V51.5H65.5v1.2H62.3v1.85h2.84Z"/></g></g></g></g><path class="cls-3" d="M44,87.92a44,44,0,1,1,44-44A44,44,0,0,1,44,87.92ZM44,1.5A42.46,42.46,0,1,0,86.42,44,42.51,42.51,0,0,0,44,1.5Z"/></g></g></svg>