<svg xmlns="http://www.w3.org/2000/svg" viewBox="0 0 46.93 46.93"><defs><style>.cls-1{fill:#ed4950;}.cls-2{fill:#fff;}</style></defs><title>interactive (2)</title><g id="Layer_2" data-name="Layer 2"><g id="Layer_1-2" data-name="Layer 1"><g id="interactive"><path id="Ellipse_1-2-6" data-name="Ellipse 1-2-6" class="cls-1" d="M23.46,0A23.47,23.47,0,1,1,0,23.46,23.47,23.47,0,0,1,23.46,0Z"/><g id="Group_231" data-name="Group 231"><path id="Path_101" data-name="Path 101" class="cls-2" d="M23.14,14.19a8.2,8.2,0,1,1-8.2,8.2,8.2,8.2,0,0,1,8.2-8.2m0-1a9.21,9.21,0,1,0,9.21,9.21h0A9.21,9.21,0,0,0,23.14,13.18Z"/><circle id="Ellipse_21" data-name="Ellipse 21" class="cls-2" cx="23.14" cy="22.39" r="5.16"/><circle id="Ellipse_22" data-name="Ellipse 22" class="cls-2" cx="23.14" cy="15.71" r="0.71"/><path id="Path_102" data-name="Path 102" class="cls-2" d="M32.35,33.42c0,1.11-4.13,1.21-9.21,1.21s-9.21-.1-9.21-1.21,4.12-2.84,9.21-2.84S32.35,32.3,32.35,33.42Z"/><ellipse id="Ellipse_23" data-name="Ellipse 23" class="cls-1" cx="23.14" cy="19.44" rx="2.21" ry="1.23"/></g></g></g></g></svg>