<svg xmlns="http://www.w3.org/2000/svg" viewBox="0 0 87.92 87.92"><defs><style>.cls-1{fill:#333;}.cls-2{fill:none;stroke:#333;stroke-miterlimit:10;stroke-width:1.5px;}</style></defs><title>Image_edit</title><g id="Layer_2" data-name="Layer 2"><g id="Layer_1-2" data-name="Layer 1"><g id="Group_191" data-name="Group 191"><path id="Path_93" data-name="Path 93" class="cls-1" d="M49.31,36.38,41.4,46.56l-5.64-6.79L27.85,49.93H59.49Z"/><g id="Group_190" data-name="Group 190"><path id="Path_94" data-name="Path 94" class="cls-1" d="M61.4,26.05H26.52A4.92,4.92,0,0,0,21.6,31v26a4.93,4.93,0,0,0,4.92,4.93H45.89v-2H26.52a3,3,0,0,1-2.94-3V31A2.94,2.94,0,0,1,26.52,28H61.4A2.94,2.94,0,0,1,64.34,31V44.06h2V31A4.93,4.93,0,0,0,61.4,26.05Z"/></g><path id="ic_create_24px" data-name="ic create 24px" class="cls-1" d="M52.38,59v2.91h2.91l8.56-8.57-1-1L61,50.4Zm13.71-7.9a.77.77,0,0,0,0-1.09l-1.81-1.81a.77.77,0,0,0-1.09,0l-1.42,1.41,2.91,2.91Z"/></g><circle class="cls-2" cx="43.96" cy="43.96" r="43.21"/></g></g></svg>