<svg xmlns="http://www.w3.org/2000/svg" viewBox="0 0 46.93 46.93"><defs><style>.cls-1{fill:#ed4950;}.cls-2{fill:#fff;}</style></defs><title>youtube live</title><g id="Layer_2" data-name="Layer 2"><g id="Layer_1-2" data-name="Layer 1"><g id="youtube_live" data-name="youtube live"><g id="Group_75" data-name="Group 75"><circle id="Ellipse_1-2-4" data-name="Ellipse 1-2-4" class="cls-1" cx="23.46" cy="23.46" r="23.46"/></g><g id="Group_77" data-name="Group 77"><g id="Group_76" data-name="Group 76"><path id="Path_22" data-name="Path 22" class="cls-2" d="M15.27,32.16a12.31,12.31,0,0,1,0-17.4l-1.33-1.32a14.2,14.2,0,0,0,0,20Z"/><path id="Path_23" data-name="Path 23" class="cls-2" d="M17.59,31l1.32-1.32a8.79,8.79,0,0,1,0-12.4l-1.32-1.33A10.65,10.65,0,0,0,17.59,31Z"/><path id="Path_24" data-name="Path 24" class="cls-2" d="M31.66,32.16,33,33.49a14.19,14.19,0,0,0,0-20.05l-1.32,1.33A12.3,12.3,0,0,1,31.66,32.16Z"/><path id="Path_25" data-name="Path 25" class="cls-2" d="M29.34,31a10.65,10.65,0,0,0,0-15L28,17.26a8.78,8.78,0,0,1,0,12.4Z"/></g><circle id="Ellipse_10" data-name="Ellipse 10" class="cls-2" cx="23.46" cy="23.46" r="3.4"/></g></g></g></g></svg>