<svg xmlns="http://www.w3.org/2000/svg" viewBox="0 0 497.92 75.5"><defs><style>.cls-1{fill:#f2f2f2;}.cls-2{opacity:0.1;}.cls-3{fill:#fff;}.cls-4{fill:#ed4950;}</style></defs><title>Asset 5</title><g id="Layer_2" data-name="Layer 2"><g id="Layer_1-2" data-name="Layer 1"><g id="logo"><g id="Group_104" data-name="Group 104"><g id="Ellipse_1-2" data-name="Ellipse 1-2"><path class="cls-1" d="M37.91.07A37.72,37.72,0,1,1,.2,37.78,37.71,37.71,0,0,1,37.91.07Z"/></g></g><g id="Group_106" data-name="Group 106" class="cls-2"><g id="Group_105" data-name="Group 105"><g id="Path_34" data-name="Path 34"><path class="cls-3" d="M68.83,16.41l0,0L6.63,59.06l0,0A37.71,37.71,0,1,1,68.83,16.41Z"/></g></g></g><g id="Group_107" data-name="Group 107"><g id="Ellipse_5" data-name="Ellipse 5"><circle class="cls-3" cx="37.91" cy="37.78" r="16.54"/></g><g id="Path_35" data-name="Path 35"><path class="cls-1" d="M37.91,16.69A21.09,21.09,0,1,1,16.82,37.78,21.1,21.1,0,0,1,37.91,16.69Z"/><path d="M37.91,61.68a23.9,23.9,0,1,1,23.9-23.9A23.93,23.93,0,0,1,37.91,61.68Zm0-42.18A18.29,18.29,0,1,0,56.2,37.78,18.3,18.3,0,0,0,37.91,19.5Z"/></g><g id="Ellipse_6" data-name="Ellipse 6"><circle class="cls-4" cx="37.91" cy="37.78" r="8.48"/></g></g></g><path class="cls-3" d="M130.87,56.1a12.42,12.42,0,0,1-5.2,4.64,18.28,18.28,0,0,1-8.33,1.73q-7.36,0-12.13-3.59a13,13,0,0,1-5.2-10h11.27a5.93,5.93,0,0,0,1.76,3.9,5.42,5.42,0,0,0,3.87,1.42,4.5,4.5,0,0,0,3.22-1.11,4,4,0,0,0,1.18-3,3.84,3.84,0,0,0-1.09-2.78,8.64,8.64,0,0,0-2.69-1.83q-1.61-.7-4.46-1.7A54.38,54.38,0,0,1,106.3,41a12.51,12.51,0,0,1-4.52-4,11.48,11.48,0,0,1-1.89-6.84,11.53,11.53,0,0,1,2-6.75,12.58,12.58,0,0,1,5.48-4.36,20,20,0,0,1,8-1.52q7.31,0,11.61,3.47a13.22,13.22,0,0,1,4.86,9.53H120.38a5.94,5.94,0,0,0-1.58-3.44,4.67,4.67,0,0,0-3.44-1.26,4.45,4.45,0,0,0-3,1,3.64,3.64,0,0,0-1.14,2.9,3.68,3.68,0,0,0,1,2.63,7.78,7.78,0,0,0,2.57,1.77q1.55.68,4.45,1.73a48.44,48.44,0,0,1,6.87,2.82,13.15,13.15,0,0,1,4.58,4,11.6,11.6,0,0,1,1.92,6.93A12.14,12.14,0,0,1,130.87,56.1Z"/><path class="cls-3" d="M159.31,52.94V62h-4.77q-6.06,0-9.44-3t-3.37-9.94V36.42h-4.64V27.5h4.64V19h10.58V27.5h6.94v8.92h-6.94V49.29a3.88,3.88,0,0,0,.84,2.85,4,4,0,0,0,2.82.8Z"/><path class="cls-3" d="M182.18,29A13,13,0,0,1,189,27.13V38.46h-3a10.5,10.5,0,0,0-6.53,1.79q-2.32,1.8-2.32,6.07V62H166.49V27.5h10.58V34A15,15,0,0,1,182.18,29Z"/><path class="cls-3" d="M227.14,46.69H203.19q.18,3.9,2,5.6a6.36,6.36,0,0,0,4.58,1.7,6.28,6.28,0,0,0,3.9-1.17,5.54,5.54,0,0,0,2-3h11.2a14.59,14.59,0,0,1-3,6.53,15.84,15.84,0,0,1-5.82,4.51,18.31,18.31,0,0,1-7.86,1.64,18.59,18.59,0,0,1-9-2.13,15.35,15.35,0,0,1-6.16-6.16,19.06,19.06,0,0,1-2.23-9.41,19.26,19.26,0,0,1,2.2-9.44,15,15,0,0,1,6.16-6.12,20.27,20.27,0,0,1,18.07,0,14.8,14.8,0,0,1,6,5.91,17.48,17.48,0,0,1,2.14,8.75A14.31,14.31,0,0,1,227.14,46.69Zm-12.22-9.56a6.71,6.71,0,0,0-4.68-1.7,6.87,6.87,0,0,0-4.82,1.73,7.24,7.24,0,0,0-2.17,5.07h13.49A6.39,6.39,0,0,0,214.92,37.13Z"/><path class="cls-3" d="M254.13,28.87a10.77,10.77,0,0,1,4.2,4.89V27.5h10.52V62H258.33V55.79a10.87,10.87,0,0,1-4.2,4.89,12.48,12.48,0,0,1-6.81,1.79,14,14,0,0,1-7.65-2.13,14.65,14.65,0,0,1-5.32-6.16,21.34,21.34,0,0,1-1.95-9.41,21.33,21.33,0,0,1,1.95-9.44,14.6,14.6,0,0,1,5.32-6.12,14,14,0,0,1,7.65-2.14A12.49,12.49,0,0,1,254.13,28.87Zm-8.89,9.71a8.75,8.75,0,0,0-2.07,6.19A8.74,8.74,0,0,0,245.24,51a7.77,7.77,0,0,0,11-.06,8.65,8.65,0,0,0,2.13-6.13,8.62,8.62,0,0,0-2.13-6.16,7.84,7.84,0,0,0-11,0Z"/><path class="cls-3" d="M332.17,31.06Q335.82,35,335.82,42V62H325.3V43.22a7.07,7.07,0,0,0-1.76-5.1,6.37,6.37,0,0,0-4.8-1.83,6.47,6.47,0,0,0-5,2,7.7,7.7,0,0,0-1.83,5.48V62H301.35V43.22a7.14,7.14,0,0,0-1.73-5.1,6.27,6.27,0,0,0-4.77-1.83,6.62,6.62,0,0,0-5,1.92A7.61,7.61,0,0,0,288,43.72V62H277.4V27.5H288v5.88a10.34,10.34,0,0,1,4.18-4.58,12.68,12.68,0,0,1,6.59-1.67,13.25,13.25,0,0,1,7,1.83,11.48,11.48,0,0,1,4.58,5.23,13.87,13.87,0,0,1,4.92-5.14,13,13,0,0,1,6.9-1.92Q328.52,27.13,332.17,31.06Z"/><path class="cls-4" d="M378.16,21.87a17.2,17.2,0,0,1,6.62,10.9h-11.2A8.69,8.69,0,0,0,370.17,29a10.39,10.39,0,0,0-5.51-1.39,10.28,10.28,0,0,0-8,3.37q-3,3.38-3,9.13,0,6.25,3.19,9.59t9.07,3.35a10.73,10.73,0,0,0,10.64-8H363.12V37.47h22.22V47.93a21.39,21.39,0,0,1-4,7.12,20.35,20.35,0,0,1-7,5.32,22.07,22.07,0,0,1-9.69,2,23.08,23.08,0,0,1-11.57-2.81,19.26,19.26,0,0,1-7.64-7.9,24.24,24.24,0,0,1-2.69-11.57,24.24,24.24,0,0,1,2.69-11.57,19.22,19.22,0,0,1,7.61-7.89,22.69,22.69,0,0,1,11.48-2.82Q372.83,17.85,378.16,21.87Z"/><path class="cls-4" d="M426.87,27.5V62H416.22V55.79a11.52,11.52,0,0,1-4.43,4.83A12.91,12.91,0,0,1,405,62.41a11.94,11.94,0,0,1-9.44-4q-3.51-4-3.5-10.89V27.5h10.52V46.26a7.7,7.7,0,0,0,1.83,5.48,6.39,6.39,0,0,0,4.92,1.94,6.51,6.51,0,0,0,5.07-2,8.34,8.34,0,0,0,1.86-5.82V27.5Z"/><path class="cls-4" d="M451.09,29a13.06,13.06,0,0,1,6.78-1.86V38.46h-3a10.5,10.5,0,0,0-6.53,1.79Q446,42.05,446,46.32V62H435.41V27.5H446V34A15.08,15.08,0,0,1,451.09,29Z"/><path class="cls-4" d="M497.92,27.5V62H487.27V55.79a11.56,11.56,0,0,1-4.42,4.83A13,13,0,0,1,476,62.41a12,12,0,0,1-9.44-4q-3.49-4-3.5-10.89V27.5h10.52V46.26a7.7,7.7,0,0,0,1.83,5.48,6.4,6.4,0,0,0,4.92,1.94,6.51,6.51,0,0,0,5.07-2,8.34,8.34,0,0,0,1.86-5.82V27.5Z"/></g></g></svg>