<svg xmlns="http://www.w3.org/2000/svg" viewBox="0 0 27 27"><defs><style>.cls-1{fill:#f24b59;}.cls-2{fill:#fff;}</style></defs><title>rate</title><g id="Layer_2" data-name="Layer 2"><g id="Layer_1-2" data-name="Layer 1"><circle class="cls-1" cx="13.5" cy="13.5" r="13.5"/><path class="cls-2" d="M13.84,6.89l1.82,4.32,4.67.4a.37.37,0,0,1,.21.64L17,15.32l1.06,4.56a.37.37,0,0,1-.55.4l-4-2.42-4,2.42a.37.37,0,0,1-.55-.4L10,15.32,6.46,12.25a.37.37,0,0,1,.21-.64l4.67-.4,1.82-4.32A.37.37,0,0,1,13.84,6.89Z"/></g></g></svg>