<svg xmlns="http://www.w3.org/2000/svg" viewBox="0 0 87.92 87.92"><defs><style>.cls-1{fill:#333;}.cls-2{fill:none;stroke:#333;stroke-miterlimit:10;stroke-width:1.5px;}</style></defs><title>trim</title><g id="Layer_2" data-name="Layer 2"><g id="Layer_1-2" data-name="Layer 1"><g id="Group_125" data-name="Group 125"><g id="Group_122" data-name="Group 122"><g id="Group_112" data-name="Group 112"><path id="Path_36" data-name="Path 36" class="cls-1" d="M60.53,26.87H27.39a4.68,4.68,0,0,0-4.67,4.68V56.23a4.67,4.67,0,0,0,4.67,4.67H45.8V59H27.39a2.81,2.81,0,0,1-2.8-2.79V31.55a2.81,2.81,0,0,1,2.8-2.8H60.52a2.8,2.8,0,0,1,2.8,2.8V44H65.2V31.55A4.68,4.68,0,0,0,60.53,26.87Z"/></g><g id="Group_121" data-name="Group 121"><g id="Group_117" data-name="Group 117"><g id="Group_113" data-name="Group 113"><rect id="Rectangle_182" data-name="Rectangle 182" class="cls-1" x="27.32" y="31.2" width="3.2" height="3.2"/></g><g id="Group_114" data-name="Group 114"><rect id="Rectangle_183" data-name="Rectangle 183" class="cls-1" x="27.32" y="38.59" width="3.2" height="3.2"/></g><g id="Group_115" data-name="Group 115"><rect id="Rectangle_184" data-name="Rectangle 184" class="cls-1" x="27.32" y="45.99" width="3.2" height="3.2"/></g><g id="Group_116" data-name="Group 116"><rect id="Rectangle_185" data-name="Rectangle 185" class="cls-1" x="27.32" y="53.38" width="3.2" height="3.2"/></g></g><g id="Group_120" data-name="Group 120"><g id="Group_118" data-name="Group 118"><rect id="Rectangle_186" data-name="Rectangle 186" class="cls-1" x="57.4" y="31.2" width="3.2" height="3.2"/></g><g id="Group_119" data-name="Group 119"><rect id="Rectangle_187" data-name="Rectangle 187" class="cls-1" x="57.4" y="38.59" width="3.2" height="3.2"/></g></g></g></g><path id="ic_content_cut_24px" data-name="ic content cut 24px" class="cls-1" d="M56.12,50.62a2.86,2.86,0,0,0,.26-1.19,2.9,2.9,0,1,0-2.9,2.91h0a2.86,2.86,0,0,0,1.19-.26l1.71,1.71L54.67,55.5a2.86,2.86,0,0,0-1.19-.26,2.91,2.91,0,1,0,2.9,2.9h0A2.9,2.9,0,0,0,56.12,57l1.71-1.71,5.09,5.08h2.17v-.73Zm-2.64.27a1.46,1.46,0,1,1,1.45-1.46h0A1.45,1.45,0,0,1,53.48,50.89Zm0,8.7a1.45,1.45,0,1,1,1.45-1.45h0A1.44,1.44,0,0,1,53.48,59.59Zm4.35-5.44a.36.36,0,0,1,0-.72.37.37,0,0,1,.37.36h0a.36.36,0,0,1-.36.36Zm5.09-6.89-4.36,4.35L60,53.06,65.09,48v-.72Z"/></g><circle class="cls-2" cx="43.96" cy="43.96" r="43.21"/></g></g></svg>