<svg xmlns="http://www.w3.org/2000/svg" viewBox="0 0 87.92 87.92"><defs><style>.cls-1{fill:#333;}.cls-2,.cls-3{isolation:isolate;}.cls-3{font-size:10.1px;fill:#fff;font-family:Roboto-Bold, Roboto;font-weight:700;}.cls-4{fill:none;stroke:#333;stroke-miterlimit:10;stroke-width:1.5px;}</style></defs><title>video_to_GIF</title><g id="Layer_2" data-name="Layer 2"><g id="Layer_1-2" data-name="Layer 1"><g id="Group_138" data-name="Group 138"><g id="Group_136" data-name="Group 136"><g id="Group_126" data-name="Group 126"><path id="Path_38" data-name="Path 38" class="cls-1" d="M56.84,26.47H23.71A4.68,4.68,0,0,0,19,31.14V55.82a4.69,4.69,0,0,0,4.68,4.68h18.4V58.62H23.71a2.8,2.8,0,0,1-2.8-2.8V31.14a2.79,2.79,0,0,1,2.8-2.79H56.84a2.79,2.79,0,0,1,2.8,2.79V43.58h1.88V31.14A4.68,4.68,0,0,0,56.84,26.47Z"/></g><g id="Group_135" data-name="Group 135"><g id="Group_131" data-name="Group 131"><g id="Group_127" data-name="Group 127"><rect id="Rectangle_188" data-name="Rectangle 188" class="cls-1" x="23.63" y="30.79" width="3.2" height="3.2"/></g><g id="Group_128" data-name="Group 128"><rect id="Rectangle_189" data-name="Rectangle 189" class="cls-1" x="23.63" y="38.19" width="3.2" height="3.2"/></g><g id="Group_129" data-name="Group 129"><rect id="Rectangle_190" data-name="Rectangle 190" class="cls-1" x="23.63" y="45.58" width="3.2" height="3.2"/></g><g id="Group_130" data-name="Group 130"><rect id="Rectangle_191" data-name="Rectangle 191" class="cls-1" x="23.63" y="52.98" width="3.2" height="3.2"/></g></g><g id="Group_134" data-name="Group 134"><g id="Group_132" data-name="Group 132"><rect id="Rectangle_192" data-name="Rectangle 192" class="cls-1" x="53.72" y="30.79" width="3.2" height="3.2"/></g><g id="Group_133" data-name="Group 133"><rect id="Rectangle_193" data-name="Rectangle 193" class="cls-1" x="53.72" y="38.19" width="3.2" height="3.2"/></g></g></g></g><g id="Group_137" data-name="Group 137"><rect id="Rectangle_194" data-name="Rectangle 194" class="cls-1" x="45.02" y="48.58" width="23.87" height="12.87"/><g id="GIF" class="cls-2"><text class="cls-3" transform="translate(48.34 58.68)">GIF</text></g></g></g><circle class="cls-4" cx="43.96" cy="43.96" r="43.21"/></g></g></svg>