<svg xmlns="http://www.w3.org/2000/svg" xmlns:xlink="http://www.w3.org/1999/xlink" viewBox="0 0 209.97 249.68"><defs><style>.cls-1,.cls-15{fill:#fff;}.cls-2{mask:url(#mask);}.cls-3{fill:url(#linear-gradient);}.cls-4{fill:#f2f2f2;}.cls-5{fill:#bfbfbf;}.cls-6{mask:url(#mask-2);}.cls-7{fill:#0d0d0d;}.cls-8{fill:#333;}.cls-9{fill:url(#linear-gradient-2);}.cls-10{opacity:0.1;}.cls-11{fill:#ed4950;}.cls-12{font-size:8.28px;}.cls-12,.cls-13{font-family:Roboto-Regular, Roboto;}.cls-13{font-size:4.08px;}.cls-13,.cls-14{fill:#0f9d58;}.cls-15{font-size:4.93px;font-family:Roboto-Bold, Roboto;font-weight:700;}.cls-16{font-size:3.43px;fill:#4d4d4d;font-family:Poppins-Regular, Poppins;}.cls-17,.cls-18{fill:none;stroke-miterlimit:10;stroke-width:0.25px;}.cls-17{stroke:#b3b3b3;}.cls-18{stroke:#0d0d0d;}</style><mask id="mask" x="-51.79" y="-86.35" width="261.76" height="336.03" maskUnits="userSpaceOnUse"><polygon class="cls-1" points="165.57 -86.35 165.44 185.07 74.93 185.07 21.04 185.07 -51.79 131.87 -51.79 -86.35 165.57 -86.35"/></mask><linearGradient id="linear-gradient" x1="91.96" y1="354.58" x2="91.32" y2="121.38" gradientTransform="translate(13.38 -99.39)" gradientUnits="userSpaceOnUse"><stop offset="0" stop-color="#fff"/><stop offset="0.21" stop-color="#e9e9e9"/><stop offset="0.5" stop-color="#d2d2d2"/><stop offset="0.77" stop-color="#c4c4c4"/><stop offset="1" stop-color="#bfbfbf"/></linearGradient><mask id="mask-2" x="2.1" y="5.02" width="158.86" height="165.29" maskUnits="userSpaceOnUse"><rect class="cls-1" x="26.6" y="23.95" width="109.86" height="127.44" transform="translate(-32.91 52.51) rotate(-30)"/></mask><linearGradient id="linear-gradient-2" x1="55.69" y1="144" x2="55.69" y2="163.47" gradientTransform="translate(-17.05 -71.99)" gradientUnits="userSpaceOnUse"><stop offset="0" stop-color="#070707"/><stop offset="1"/></linearGradient></defs><title>streamguru_playstore_screenshot</title><g id="Layer_2" data-name="Layer 2"><g id="Layer_1-2" data-name="Layer 1"><g class="cls-2"><rect class="cls-3" x="43.84" y="9.46" width="122.29" height="230.77" rx="15.47" transform="translate(-48.35 69.22) rotate(-30)"/><rect class="cls-4" x="44.09" y="18.03" width="109.35" height="192.08" rx="5.85" transform="translate(-43.8 64.67) rotate(-30)"/><rect class="cls-5" x="118.21" y="224.02" width="7.19" height="7.19" transform="translate(-97.49 91.4) rotate(-30)"/><rect class="cls-5" x="182.59" y="186.85" width="7.19" height="7.19" transform="translate(-70.28 118.61) rotate(-30)"/><circle class="cls-5" cx="154" cy="209.03" r="4.8"/><g class="cls-6"><path id="ic_arrow_back_24px" data-name="ic arrow back 24px" class="cls-7" d="M15.33,59.41l-3.86,2.23.75-2.79-.71-.19-1.07,4,4,1.07.19-.7-2.8-.75,3.86-2.23Z"/><path id="ic_search_24px" data-name="ic search 24px" class="cls-7" d="M87.33,19.23l-.25.14-.14,0a2.36,2.36,0,1,0-.09.35l.13,0,.15.25,2.5.66.2-.74Zm-1.9,1.09a1.65,1.65,0,1,1,.6-2.25,1.65,1.65,0,0,1-.6,2.25Z"/><g id="Group_15" data-name="Group 15"><circle id="Ellipse_2" data-name="Ellipse 2" class="cls-8" cx="94.03" cy="11.9" r="0.67"/><circle id="Ellipse_3" data-name="Ellipse 3" class="cls-8" cx="95.01" cy="13.6" r="0.67"/><circle id="Ellipse_4" data-name="Ellipse 4" class="cls-8" cx="96.19" cy="15.65" r="0.67"/></g><rect class="cls-9" x="28.97" y="72.08" width="19.34" height="19.34" rx="1.89" transform="translate(-35.7 30.27) rotate(-30)"/><g id="logo"><g id="Group_104" data-name="Group 104"><g id="Ellipse_1-2" data-name="Ellipse 1-2"><path class="cls-4" d="M34.72,74.93a7.87,7.87,0,1,1-2.87,10.74,7.87,7.87,0,0,1,2.87-10.74Z"/></g></g><g id="Group_106" data-name="Group 106" class="cls-10"><g id="Group_105" data-name="Group 105"><g id="Path_34" data-name="Path 34"><path class="cls-1" d="M42,74.66h0L35.23,88.85h0A7.86,7.86,0,1,1,42,74.66Z"/></g></g></g><g id="Group_107" data-name="Group 107"><g id="Ellipse_5" data-name="Ellipse 5"><circle class="cls-1" cx="38.66" cy="81.74" r="3.45"/></g><g id="Path_35" data-name="Path 35"><path class="cls-4" d="M36.46,77.93a4.4,4.4,0,1,1-1.61,6,4.41,4.41,0,0,1,1.61-6Z"/><path d="M41.15,86.06A5,5,0,1,1,43,79.25,5,5,0,0,1,41.15,86.06Zm-4.4-7.62A3.81,3.81,0,1,0,42,79.83,3.82,3.82,0,0,0,36.75,78.44Z"/></g><g id="Ellipse_6" data-name="Ellipse 6"><circle class="cls-11" cx="38.66" cy="81.74" r="1.77"/></g></g></g><path class="cls-11" d="M31.51,74.69l.46.8a1.42,1.42,0,0,1-.52,1.94l-4.85,2.8-.22-.38a1.88,1.88,0,0,1,.69-2.59Z"/><path class="cls-1" d="M27.4,78.45a.45.45,0,0,0,0-.31s-.07-.07-.11,0a.07.07,0,0,0,0,.06.42.42,0,0,0,.05.12l-.36.21a.52.52,0,0,1-.08-.3.41.41,0,0,1,.08-.24.55.55,0,0,1,.19-.18.44.44,0,0,1,.37-.07.4.4,0,0,1,.25.19.65.65,0,0,1,.07.37,1.25,1.25,0,0,1-.13.4l.39-.22.17.3-.87.5L27.22,79C27.3,78.75,27.36,78.59,27.4,78.45Z"/><path class="cls-1" d="M28,78.08a.8.8,0,0,1-.13-.51.6.6,0,0,1,.76-.44.77.77,0,0,1,.38.36.82.82,0,0,1,.13.52.49.49,0,0,1-.29.38.51.51,0,0,1-.47.06A.8.8,0,0,1,28,78.08Zm.64-.37a.5.5,0,0,0-.13-.17.14.14,0,0,0-.15,0,.11.11,0,0,0-.07.13.43.43,0,0,0,.08.2.63.63,0,0,0,.13.17.14.14,0,0,0,.15,0,.12.12,0,0,0,.07-.13A.59.59,0,0,0,28.64,77.71Z"/><path class="cls-1" d="M29.47,77.25a.4.4,0,0,0,0-.31s-.06-.07-.1,0,0,0,0,.06a.24.24,0,0,0,0,.12l-.36.21a.61.61,0,0,1-.08-.3.41.41,0,0,1,.08-.24.59.59,0,0,1,.2-.18.48.48,0,0,1,.37-.07.4.4,0,0,1,.24.2.49.49,0,0,1,.07.36,1.15,1.15,0,0,1-.12.4l.38-.22.18.3-.88.5-.16-.28A4.52,4.52,0,0,0,29.47,77.25Z"/><path class="cls-1" d="M30.07,76.88a.85.85,0,0,1-.13-.51.53.53,0,0,1,.29-.39.55.55,0,0,1,.48,0,.84.84,0,0,1,.38.37.85.85,0,0,1,.13.51.53.53,0,0,1-.29.39.55.55,0,0,1-.48,0A.84.84,0,0,1,30.07,76.88Zm.65-.37a.66.66,0,0,0-.14-.17.14.14,0,0,0-.15,0,.13.13,0,0,0-.07.13.59.59,0,0,0,.08.2.67.67,0,0,0,.13.17.14.14,0,0,0,.15,0,.13.13,0,0,0,.08-.13A.91.91,0,0,0,30.72,76.51Z"/><text class="cls-12" transform="translate(52.2 71.02) rotate(-30)">StreamGuru</text><text class="cls-13" transform="translate(55.9 75.79) rotate(-30)">Yasoka InfoTech LLP.</text><rect class="cls-14" x="55.4" y="118.7" width="99.49" height="12.31" rx="1.97" transform="translate(-48.34 69.3) rotate(-30)"/><text class="cls-15" transform="translate(100.17 129.48) rotate(-30)">Install</text><path d="M57.7,106.24l1.25.94,1.41-.66a.12.12,0,0,1,.17.15L60,108.15l1.07,1.14a.12.12,0,0,1-.09.2l-1.57,0-.75,1.36a.12.12,0,0,1-.22,0l-.46-1.5L56.47,109a.12.12,0,0,1,0-.22l1.28-.9-.19-1.54A.12.12,0,0,1,57.7,106.24Z"/><path d="M49.57,113.86l.49-.28.4.69-.49.28.54.94-.86.49-.54-.93-1.77,1-.35-.52.16-3.88.87-.5Zm-1.81,1,1-.55-.89-1.53V113Z"/><path d="M51.3,114.47a.46.46,0,0,1,0-.41.55.55,0,0,1,.27-.33.58.58,0,0,1,.42-.07.51.51,0,0,1,.33.25.46.46,0,0,1,0,.41.55.55,0,0,1-.27.33.59.59,0,0,1-.42.07A.48.48,0,0,1,51.3,114.47Z"/><path d="M52.63,110.88l.46-.27a.71.71,0,0,0,.39-.44.73.73,0,0,0-.09-.53.62.62,0,0,0-.39-.31.73.73,0,0,0-.52.1.78.78,0,0,0-.33.37.48.48,0,0,0,0,.45l-.86.5a1.24,1.24,0,0,1-.17-.72,1.42,1.42,0,0,1,.27-.71,1.93,1.93,0,0,1,.63-.57,1.89,1.89,0,0,1,1.27-.29,1.29,1.29,0,0,1,.91.68,1,1,0,0,1,.13.65,1.41,1.41,0,0,1-.25.66,1.23,1.23,0,0,1,.77.07,1.38,1.38,0,0,1,.65,1.68,1.92,1.92,0,0,1-.91,1,1.85,1.85,0,0,1-1.26.27,1.31,1.31,0,0,1-.93-.66l.86-.5a.56.56,0,0,0,.41.29.76.76,0,0,0,.54-.1.86.86,0,0,0,.39-.44.67.67,0,0,0-.08-.53.69.69,0,0,0-1.08-.24l-.46.27Z"/><text class="cls-16" transform="translate(50.78 122.07) rotate(-30)">2M reviews</text><path d="M77.54,101.37,71,105.16,67.2,98.6l6.56-3.78Zm-6.32,2.91,5.44-3.14L73.52,95.7l-5.44,3.14Z"/><path d="M70.57,100.72a.27.27,0,0,1-.2-.35.4.4,0,0,1,.16-.18.42.42,0,0,1,.24,0l1.47.28-1.36-2.37a.33.33,0,0,1,.56-.32l1.37,2.36.49-1.41a.37.37,0,0,1,.4-.23.25.25,0,0,1,.2.35l-.74,2.1a.35.35,0,0,1-.15.19.37.37,0,0,1-.25,0Z"/><rect x="71.37" y="101.52" width="4.16" height="0.65" transform="translate(-41.08 50.37) rotate(-30)"/><text class="cls-16" transform="translate(73.28 109.09) rotate(-30)">15 MB</text><path d="M94.34,83.25l3.51,6.08-6.08,3.51-3.51-6.08,6.08-3.51m.1-.38-6.56,3.79,3.79,6.56,6.56-3.79-3.79-6.56Z"/><path d="M91.15,88.6l.48-.27a.76.76,0,0,0,.4-.46.72.72,0,0,0-.1-.54.61.61,0,0,0-.4-.33.71.71,0,0,0-.53.11.72.72,0,0,0-.35.38.52.52,0,0,0,0,.47l-.89.51a1.3,1.3,0,0,1-.17-.74,1.44,1.44,0,0,1,.28-.74,2.06,2.06,0,0,1,.65-.59,2,2,0,0,1,1.31-.3,1.36,1.36,0,0,1,.95.7,1.13,1.13,0,0,1,.13.68,1.36,1.36,0,0,1-.26.68,1.25,1.25,0,0,1,.8.08,1.22,1.22,0,0,1,.55.53A1.37,1.37,0,0,1,94.16,90a2,2,0,0,1-.94,1,1.92,1.92,0,0,1-1.3.28,1.34,1.34,0,0,1-1-.69l.89-.51a.58.58,0,0,0,.43.3.92.92,0,0,0,1-.56.68.68,0,0,0-.08-.55c-.26-.45-.63-.53-1.13-.24l-.47.27Z"/><path d="M94.82,86.68l.65-.38.27.47-.65.38.42.73-.49.28-.43-.73-.65.38-.27-.47.65-.38-.4-.7.49-.28Z"/><text class="cls-16" transform="translate(93.96 97.15) rotate(-30)">Rated for<tspan x="0" y="4.12">3+</tspan></text><text class="cls-16" transform="translate(114.27 85.42) rotate(-30)">Downloads</text><path d="M110.66,77.08,110,75.89l1.93-1.09,2.27,4-1.33.75-1.6-2.85Z"/><path d="M113.5,76.51a2.72,2.72,0,0,1-.41-1.73,1.74,1.74,0,0,1,1-1.28,1.76,1.76,0,0,1,1.6-.17,2.75,2.75,0,0,1,1.26,1.25,2.79,2.79,0,0,1,.42,1.73,1.75,1.75,0,0,1-1,1.28,1.78,1.78,0,0,1-1.61.17A2.75,2.75,0,0,1,113.5,76.51Zm2.17-1.23a1.9,1.9,0,0,0-.44-.57.4.4,0,0,0-.49,0,.43.43,0,0,0-.26.43,2.19,2.19,0,0,0,.26.68,2.08,2.08,0,0,0,.45.57.4.4,0,0,0,.5,0,.41.41,0,0,0,.25-.43A2,2,0,0,0,115.67,75.28Z"/><path d="M117.27,74.38a2.76,2.76,0,0,1-.41-1.72,2,2,0,0,1,2.58-1.45,3.25,3.25,0,0,1,1.67,3,1.71,1.71,0,0,1-1,1.28,1.73,1.73,0,0,1-1.6.17A2.82,2.82,0,0,1,117.27,74.38Zm2.18-1.22a2.12,2.12,0,0,0-.45-.58.42.42,0,0,0-.49,0,.41.41,0,0,0-.25.43,1.89,1.89,0,0,0,.26.68,2.12,2.12,0,0,0,.44.58.43.43,0,0,0,.5,0,.43.43,0,0,0,.25-.44A1.92,1.92,0,0,0,119.45,73.16Z"/><path d="M124.29,71.36l-.85.48.5.87-1.22.69-.49-.87-.85.47-.65-1.15.85-.48-.5-.88,1.22-.68.49.88.85-.48Z"/><line class="cls-17" x1="66.42" y1="103.74" x2="70.71" y2="111.17"/><line class="cls-17" x1="87.01" y1="91.85" x2="91.3" y2="99.29"/><line class="cls-17" x1="107.6" y1="79.97" x2="111.89" y2="87.4"/><line class="cls-18" x1="11.05" y1="71.04" x2="105.24" y2="16.66"/></g></g></g></g></svg>